<svg xmlns="http://www.w3.org/2000/svg" viewBox="0 0 113.71 124"><defs><style>.cls-1{fill:#fff;}</style></defs><g id="Capa_2" data-name="Capa 2"><g id="Capa_4" data-name="Capa 4"><path class="cls-1" d="M90.84,64.55A48.59,48.59,0,0,0,87,61.21a55.81,55.81,0,0,0-11.54-6.7c-7.74-3.29-14.91-2.94-18.48-3h-.33c-3.57,0-10.74-.31-18.48,3a55.81,55.81,0,0,0-11.54,6.7,48.59,48.59,0,0,0-3.8,3.34c-6.18,6-12.78,16.77-12.59,33.72.13,12,12.75,24.64,22.53,25.7,2.53.28,16.76-1.49,24-1.49v-3.16c0-1.42,0-2.83,0-4.23q0,3.7,0,7.39c7.27,0,21.5,1.77,24,1.49,9.78-1.06,22.4-13.73,22.53-25.7C103.62,81.32,97,70.52,90.84,64.55Z"/><path d="M72.29,91.57c-.56.11,1.78,6.45-.74,11.56s-8.93,6.89-14.72,7.5c-5.78-.61-12.17-2.38-14.71-7.5s-.18-11.45-.74-11.56-3.36,6.1-2.24,13.18c.31,1.94,1.17,6.87,5.22,10.54a14.93,14.93,0,0,0,12.47,3.45,15,15,0,0,0,12.48-3.45c4-3.67,4.91-8.6,5.22-10.54C75.65,97.67,72.85,91.45,72.29,91.57Z"/><ellipse cx="56.83" cy="108.14" rx="7.16" ry="3.58"/><path class="cls-1" d="M31,65.74c1.15-.71,2.64-2.26,3.36-7.2.63-4.29-.06-6.14-.34-11a78.06,78.06,0,0,1,1.47-19c.81-4.37,1-3.71,1.17-5.59,0-.81.66-12.12-8.13-18.71C27.22,3.23,19.9-2,12.43.82,7.29,2.74,4.92,7.39,3.33,10.5-2.42,21.78.79,33.61,1.87,37.62c2.58,9.53,7.48,15.23,11.83,20.3,4,4.68,8.2,8.15,13,8.61A6.65,6.65,0,0,0,31,65.74Z"/><path d="M34.06,47.52a78.06,78.06,0,0,1,1.47-19v0a61.09,61.09,0,0,0-4.73,8.72c-1.5,3.21-3,6.45-2.91,10.9,0,3,.09,7.61,2.63,10.44A6.3,6.3,0,0,1,32.43,62c.22,1.62-.5,2.54-.3,2.8.88-1,1.76-2.8,2.27-6.27C35,54.25,34.34,52.4,34.06,47.52Z"/><path d="M10.09,96.58A72.72,72.72,0,0,1,11.27,85.4a42,42,0,0,1,2.35-7.05A51.31,51.31,0,0,1,21.8,64.89l.06-.07c.63-.71,1.57-1.34,1.76-1.18s-.72,1-.59,1.77c.31,1.68,5.89,3.63,9.41,1.17,1.73-1.19,2.54-3.74,3-5.88a17.75,17.75,0,0,0,.21-3.4,2,2,0,0,1,.19-1.12,6.05,6.05,0,0,1,6.65-2c.79.25,2.76.89,2.94,2.35a3,3,0,0,1-.84,2.77c-1.8,2.06-3.12,2.38-5.4,4.28-.49.42-3.7,2.69-3.16,3.91a1.22,1.22,0,0,0,.56.56c.7.39,2.37-.16,2.6-.18,3-.38,4.66.37,6,1.49A11.81,11.81,0,0,1,49.39,77a18.31,18.31,0,0,1-2.24,10.13A13.89,13.89,0,0,1,43,91.87a14.55,14.55,0,0,1-10.59,2.36c-1.17-.19-7.07-1.15-8.23-4.71-.7-2.15-1.18-3.53-.59-5.29.22-.66-2.94,1.76-4.7,3.53a67.32,67.32,0,0,0-7.65,9.41C10.68,98.34,10.09,98.72,10.09,96.58Z"/><path d="M103.76,96.58a74.07,74.07,0,0,0-1.17-11.18,41.38,41.38,0,0,0-2.36-7.05,51.11,51.11,0,0,0-8.17-13.46L92,64.82c-.64-.71-1.57-1.34-1.77-1.18s.73,1,.59,1.77c-.3,1.68-5.88,3.63-9.41,1.17-1.72-1.19-2.54-3.74-2.94-5.88a17,17,0,0,1-.22-3.4,1.91,1.91,0,0,0-.19-1.12,6,6,0,0,0-6.65-2c-.78.25-2.75.89-2.94,2.35a3,3,0,0,0,.84,2.77c1.8,2.06,3.12,2.38,5.4,4.28.5.42,3.7,2.69,3.17,3.91a1.22,1.22,0,0,1-.56.56c-.7.39-2.38-.16-2.61-.18-3-.38-4.65.37-6,1.49A11.84,11.84,0,0,0,64.47,77a18.22,18.22,0,0,0,2.24,10.13,14,14,0,0,0,4.11,4.7,14.56,14.56,0,0,0,10.59,2.36c1.17-.19,7.08-1.15,8.24-4.71.7-2.15,1.17-3.53.58-5.29-.22-.66,2.94,1.76,4.71,3.53a67.32,67.32,0,0,1,7.65,9.41C103.17,98.34,103.76,98.72,103.76,96.58Z"/><circle class="cls-1" cx="35.24" cy="80.26" r="9.85"/><circle class="cls-1" cx="78.47" cy="80.44" r="9.85" transform="matrix(0.03, -1, 1, 0.03, -4.54, 156.19)"/><path class="cls-1" d="M82.67,65.74c-1.15-.71-2.64-2.26-3.36-7.2-.63-4.29,0-6.14.33-11a77.55,77.55,0,0,0-1.47-19c-.8-4.37-1-3.71-1.16-5.59-.06-.81-.66-12.12,8.12-18.71C86.49,3.23,93.8-2,101.28.82c5.14,1.92,7.51,6.57,9.1,9.68,5.74,11.28,2.54,23.11,1.46,27.12-2.58,9.53-7.48,15.23-11.84,20.3-4,4.68-8.19,8.15-13,8.61A6.63,6.63,0,0,1,82.67,65.74Z"/><path d="M79.64,47.52a77.55,77.55,0,0,0-1.47-19v0a62.12,62.12,0,0,1,4.73,8.72c1.5,3.21,3,6.45,2.91,10.9,0,3-.09,7.61-2.63,10.44A6.24,6.24,0,0,0,81.28,62c-.22,1.62.5,2.54.3,2.8-.88-1-1.77-2.8-2.27-6.27C78.68,54.25,79.36,52.4,79.64,47.52Z"/></g></g></svg>